<svg xmlns="http://www.w3.org/2000/svg" xlink="http://www.w3.org/1999/xlink" viewBox="0 0 24 24" id="svg2689065192"><path d="M 8.75 19.25 L 8.75 16 C 7.375 14.854 5.75 12.93 5.75 11 C 5.75 7.548 8.548 4.75 12 4.75 C 15.452 4.75 18.25 7.548 18.25 11 L 18.25 14.25 C 18.25 15.355 17.355 16.25 16.25 16.25 L 14.25 16.25 L 14.25 19.25" fill="transparent" stroke-width="1.5" stroke="var(--token-72be4b58-ad30-40d4-9403-e97ffbb2d1b3, rgb(246, 246, 246)) /* {&quot;name&quot;:&quot;Text&quot;} */" stroke-linecap="round" stroke-linejoin="round" stroke-dasharray=""></path><path d="M 14.5 10 C 14.5 10.276 14.276 10.5 14 10.5 C 13.724 10.5 13.5 10.276 13.5 10 C 13.5 9.724 13.724 9.5 14 9.5 C 14.276 9.5 14.5 9.724 14.5 10 Z" fill="transparent" stroke="var(--token-72be4b58-ad30-40d4-9403-e97ffbb2d1b3, rgb(246, 246, 246)) /* {&quot;name&quot;:&quot;Text&quot;} */" stroke-linecap="round" stroke-linejoin="round" stroke-dasharray=""></path></svg>