<svg xmlns="http://www.w3.org/2000/svg" xlink="http://www.w3.org/1999/xlink" viewBox="0 0 24 24" id="svg104294439"><path d="M 4.75 7.75 C 4.75 6.093 6.093 4.75 7.75 4.75 L 16.25 4.75 C 17.907 4.75 19.25 6.093 19.25 7.75 L 19.25 16.25 C 19.25 17.907 17.907 19.25 16.25 19.25 L 7.75 19.25 C 6.093 19.25 4.75 17.907 4.75 16.25 Z" fill="transparent" stroke-width="1.5" stroke="var(--token-72be4b58-ad30-40d4-9403-e97ffbb2d1b3, rgb(246, 246, 246)) /* {&quot;name&quot;:&quot;Text&quot;} */" stroke-linecap="round" stroke-linejoin="round" stroke-dasharray=""></path><path d="M 10.75 16.25 L 10.75 14 C 10.75 12.757 11.757 11.75 13 11.75 C 14.243 11.75 15.25 12.757 15.25 14 L 15.25 16.25" fill="transparent" stroke-width="1.5" stroke="var(--token-72be4b58-ad30-40d4-9403-e97ffbb2d1b3, rgb(246, 246, 246)) /* {&quot;name&quot;:&quot;Text&quot;} */" stroke-linecap="round" stroke-linejoin="round" stroke-dasharray=""></path><path d="M 10.75 11.75 L 10.75 16.25" fill="transparent" stroke-width="1.5" stroke="var(--token-72be4b58-ad30-40d4-9403-e97ffbb2d1b3, rgb(246, 246, 246)) /* {&quot;name&quot;:&quot;Text&quot;} */" stroke-linecap="round" stroke-linejoin="round" stroke-dasharray=""></path><path d="M 7.75 11.75 L 7.75 16.25" fill="transparent" stroke-width="1.5" stroke="var(--token-72be4b58-ad30-40d4-9403-e97ffbb2d1b3, rgb(246, 246, 246)) /* {&quot;name&quot;:&quot;Text&quot;} */" stroke-linecap="round" stroke-linejoin="round" stroke-dasharray=""></path><path d="M 7.75 8.75 L 7.75 9.25" fill="transparent" stroke-width="1.5" stroke="var(--token-72be4b58-ad30-40d4-9403-e97ffbb2d1b3, rgb(246, 246, 246)) /* {&quot;name&quot;:&quot;Text&quot;} */" stroke-linecap="round" stroke-linejoin="round" stroke-dasharray=""></path></svg>