<svg xmlns="http://www.w3.org/2000/svg" xlink="http://www.w3.org/1999/xlink" viewBox="0 0 24 24" id="svg480794297"><path d="M 5.75 16.5 L 18.25 16.5 L 18.25 15 L 5.75 15 Z M 18.5 16.75 L 18.5 18.25 L 20 18.25 L 20 16.75 Z M 18.25 18.5 L 5.75 18.5 L 5.75 20 L 18.25 20 Z M 5.5 18.25 L 5.5 16.75 L 4 16.75 L 4 18.25 Z M 5.75 18.5 C 5.612 18.5 5.5 18.388 5.5 18.25 L 4 18.25 C 4 19.216 4.784 20 5.75 20 Z M 18.5 18.25 C 18.5 18.388 18.388 18.5 18.25 18.5 L 18.25 20 C 19.216 20 20 19.216 20 18.25 Z M 18.25 16.5 C 18.388 16.5 18.5 16.612 18.5 16.75 L 20 16.75 C 20 15.784 19.216 15 18.25 15 Z M 5.75 15 C 4.784 15 4 15.784 4 16.75 L 5.5 16.75 C 5.5 16.612 5.612 16.5 5.75 16.5 Z" fill="var(--token-72be4b58-ad30-40d4-9403-e97ffbb2d1b3, rgb(246, 246, 246)) /* {&quot;name&quot;:&quot;Text&quot;} */"></path><path d="M 17.5 15.25 C 17.5 15.664 17.836 16 18.25 16 C 18.664 16 19 15.664 19 15.25 Z M 5 15.25 C 5 15.664 5.336 16 5.75 16 C 6.164 16 6.5 15.664 6.5 15.25 Z M 17.5 13 L 17.5 15.25 L 19 15.25 L 19 13 Z M 6.5 15.25 L 6.5 13 L 5 13 L 5 15.25 Z M 12 7.5 C 15.038 7.5 17.5 9.962 17.5 13 L 19 13 C 19 9.134 15.866 6 12 6 Z M 12 6 C 8.134 6 5 9.134 5 13 L 6.5 13 C 6.5 9.962 8.962 7.5 12 7.5 Z" fill="var(--token-72be4b58-ad30-40d4-9403-e97ffbb2d1b3, rgb(246, 246, 246)) /* {&quot;name&quot;:&quot;Text&quot;} */"></path><path d="M 12 5 L 12 6 C 12.552 6 13 5.552 13 5 Z M 12 5 L 11 5 C 11 5.552 11.448 6 12 6 Z M 12 5 L 12 4 C 11.448 4 11 4.448 11 5 Z M 12 5 L 13 5 C 13 4.448 12.552 4 12 4 Z" fill="var(--token-72be4b58-ad30-40d4-9403-e97ffbb2d1b3, rgb(246, 246, 246)) /* {&quot;name&quot;:&quot;Text&quot;} */"></path></svg>