<svg xmlns="http://www.w3.org/2000/svg" xlink="http://www.w3.org/1999/xlink" viewBox="0 0 24 24" id="svg2246195536"><path d="M 10.5 8 L 10.5 15.25 L 12 15.25 L 12 8 Z M 5.5 15.25 L 5.5 8 L 4 8 L 4 15.25 Z M 10.25 15.5 L 5.75 15.5 L 5.75 17 L 10.25 17 Z M 4 15.25 C 4 16.216 4.784 17 5.75 17 L 5.75 15.5 C 5.612 15.5 5.5 15.388 5.5 15.25 Z M 10.5 15.25 C 10.5 15.388 10.388 15.5 10.25 15.5 L 10.25 17 C 11.216 17 12 16.216 12 15.25 Z M 8 5.5 C 9.381 5.5 10.5 6.619 10.5 8 L 12 8 C 12 5.791 10.209 4 8 4 Z M 8 4 C 5.791 4 4 5.791 4 8 L 5.5 8 C 5.5 6.619 6.619 5.5 8 5.5 Z" fill="var(--token-72be4b58-ad30-40d4-9403-e97ffbb2d1b3, rgb(246, 246, 246)) /* {&quot;name&quot;:&quot;Text&quot;} */"></path><path d="M 8 9 L 8 10 C 8.552 10 9 9.552 9 9 Z M 8 9 L 7 9 C 7 9.552 7.448 10 8 10 Z M 8 9 L 8 8 C 7.448 8 7 8.448 7 9 Z M 8 9 L 9 9 C 9 8.448 8.552 8 8 8 Z" fill="var(--token-72be4b58-ad30-40d4-9403-e97ffbb2d1b3, rgb(246, 246, 246)) /* {&quot;name&quot;:&quot;Text&quot;} */"></path><path d="M 8.75 4 C 8.336 4 8 4.336 8 4.75 C 8 5.164 8.336 5.5 8.75 5.5 Z M 8.75 15.5 C 8.336 15.5 8 15.836 8 16.25 C 8 16.664 8.336 17 8.75 17 Z M 8.75 5.5 L 15.25 5.5 L 15.25 4 L 8.75 4 Z M 18.5 8.75 L 18.5 15.25 L 20 15.25 L 20 8.75 Z M 18.25 15.5 L 8.75 15.5 L 8.75 17 L 18.25 17 Z M 18.5 15.25 C 18.5 15.388 18.388 15.5 18.25 15.5 L 18.25 17 C 19.216 17 20 16.216 20 15.25 Z M 15.25 5.5 C 17.045 5.5 18.5 6.955 18.5 8.75 L 20 8.75 C 20 6.127 17.873 4 15.25 4 Z" fill="var(--token-72be4b58-ad30-40d4-9403-e97ffbb2d1b3, rgb(246, 246, 246)) /* {&quot;name&quot;:&quot;Text&quot;} */"></path><path d="M 14.75 8.25 C 14.336 8.25 14 8.586 14 9 C 14 9.414 14.336 9.75 14.75 9.75 Z M 16.25 9.75 C 16.664 9.75 17 9.414 17 9 C 17 8.586 16.664 8.25 16.25 8.25 Z M 14.75 9.75 L 16.25 9.75 L 16.25 8.25 L 14.75 8.25 Z" fill="var(--token-72be4b58-ad30-40d4-9403-e97ffbb2d1b3, rgb(246, 246, 246)) /* {&quot;name&quot;:&quot;Text&quot;} */"></path><path d="M 16 16.5 C 16 16.086 15.664 15.75 15.25 15.75 C 14.836 15.75 14.5 16.086 14.5 16.5 Z M 14.5 19.25 C 14.5 19.664 14.836 20 15.25 20 C 15.664 20 16 19.664 16 19.25 Z M 14.5 16.5 L 14.5 19.25 L 16 19.25 L 16 16.5 Z" fill="var(--token-72be4b58-ad30-40d4-9403-e97ffbb2d1b3, rgb(246, 246, 246)) /* {&quot;name&quot;:&quot;Text&quot;} */"></path></svg>